<?xml version="1.0" encoding="UTF-8"?>
<svg id="Layer_1" xmlns="http://www.w3.org/2000/svg" xmlns:xlink="http://www.w3.org/1999/xlink" version="1.1" viewBox="0 0 2521 2911">
  <defs>
    <style>
      .st0, .st1, .st2, .st3, .st4, .st5, .st6, .st7, .st8, .st9, .st11, .st12, .st13, .st14, .st15, .st17, .st18 {
        isolation: isolate;
      }
      .st0, .st5, .st19 { opacity: .08; }
      .st1 { opacity: .25; }
      .st2 { opacity: .15; }
      .st3 { stroke: url(#linear-gradient15); }
      .st3, .st4, .st5, .st9, .st21, .st11, .st22, .st23, .st24, .st25, .st26, .st27, .st28, .st29, .st30, .st31 { fill: none; }
      .st3, .st4, .st5, .st9, .st11 { stroke-miterlimit: 6; }
      .st3, .st4, .st6, .st11, .st13, .st14 { opacity: 0; }
      .st3, .st4, .st9, .st11 { stroke-width: 4.5px; }
      .st4 { stroke: url(#linear-gradient14); }
      .st5 { stroke: #718096; }
      .st5, .st22, .st23, .st24, .st25, .st26, .st27, .st28, .st29, .st30 { stroke-width: 3px; }
      .st32 { fill: url(#linear-gradient18); }
      .st33 { fill: url(#linear-gradient16); }
      .st34 { fill: url(#linear-gradient17); }
      .st35 { fill: url(#linear-gradient19); }
      .st36 { fill: url(#linear-gradient23); }
      .st37 { fill: url(#linear-gradient22); }
      .st38 { fill: url(#linear-gradient24); }
      .st39 { fill: url(#linear-gradient21); }
      .st40 { fill: url(#linear-gradient20); }
      .st6, .st41, .st18 { fill: #2d3748; }
      .st42 { fill: url(#radial-gradient); }
      .st43 { fill: url(#linear-gradient); }
      .st7 { fill: #fff; font-family: Helvetica-Bold, Helvetica; letter-spacing: .05em; }
      .st7, .st12 { font-size: 160px; }
      .st7, .st15 { font-weight: 700; }
      .st9 { stroke: #0d1117; opacity: .5; }
      .st21 { stroke: #4a5568; }
      .st21, .st31 { stroke-width: 2px; }
      .st44 { opacity: .06; }
      .st11 { stroke: url(#linear-gradient10); stroke-linecap: round; }
      .st12 { fill: #8ec5fc; font-family: ArialMT, Arial; }
      .st45 { fill: url(#radial-gradient1); }
      .st46 { fill: url(#radial-gradient6); }
      .st47 { fill: url(#radial-gradient9); }
      .st48 { fill: url(#radial-gradient8); }
      .st49 { fill: url(#radial-gradient5); }
      .st50 { fill: url(#radial-gradient4); }
      .st51 { fill: url(#radial-gradient7); }
      .st13 { fill: url(#radial-gradient3); }
      .st14 { fill: url(#radial-gradient2); }
      .st15 { fill: #805ad5; font-family: Courier-Bold, Courier; font-size: 120px; }
      .st22 { stroke: url(#linear-gradient2); }
      .st23 { stroke: url(#linear-gradient3); }
      .st24 { stroke: url(#linear-gradient7); }
      .st25 { stroke: url(#linear-gradient8); }
      .st26 { stroke: url(#linear-gradient6); }
      .st27 { stroke: url(#linear-gradient5); }
      .st28 { stroke: url(#linear-gradient4); }
      .st29 { stroke: url(#linear-gradient11); }
      .st30 { stroke: url(#linear-gradient12); }
      .st31 { stroke: url(#linear-gradient9); }
      .st17 { fill: none; }

      .hat-main {
        animation: sway 4s ease-in-out infinite;
        transform-origin: center 1770px;
      }
      @keyframes sway {
        0%, 100% { transform: rotate(0deg); }
        25% { transform: rotate(-2deg); }
        75% { transform: rotate(2deg); }
      }

      .star { animation: twinkle 2s ease-in-out infinite; }
      .star:nth-child(1) { animation-delay: 0s; }
      .star:nth-child(2) { animation-delay: 0.4s; }
      .star:nth-child(3) { animation-delay: 0.8s; }
      .star:nth-child(4) { animation-delay: 1.2s; }
      .star:nth-child(5) { animation-delay: 1.6s; }
      @keyframes twinkle {
        0%, 100% { opacity: 1; transform: scale(1); }
        50% { opacity: 0.3; transform: scale(0.8); }
      }

      .sparkle-glow { animation: pulse 3s ease-in-out infinite; }
      .sparkle-glow:nth-child(even) { animation-delay: 1.5s; }
      @keyframes pulse {
        0%, 100% { opacity: 0.19; }
        50% { opacity: 0.4; }
      }

      .text-glow {
        fill: #8ec5fc;
        font-family: Courier-Bold, Courier;
        font-size: 120px;
        font-weight: 700;
        filter: blur(2px);
        opacity: 0.2;
        animation: textGlow 3s ease-in-out infinite;
      }
      .text-fill {
        fill: #805ad5;
        font-family: Courier-Bold, Courier;
        font-size: 120px;
        font-weight: 700;
        animation: textShimmer 4s ease-in-out infinite;
      }
      @keyframes textGlow {
        0%, 100% { opacity: 0.2; filter: blur(2px); }
        50% { opacity: 0.3; filter: blur(3px); }
      }
      @keyframes textShimmer {
        0%, 100% { fill: #805ad5; }
        50% { fill: #9f7aea; }
      }

      .magic-particle { animation: fall 8s ease-in infinite; opacity: 0; }
      @keyframes fall {
        0% { transform: translateY(0) translateX(0); opacity: 0; }
        10% { opacity: 0.6; }
        80% { opacity: 0.4; }
        100% { transform: translateY(600px) translateX(20px); opacity: 0; }
      }
      .magic-particle:nth-child(1) { animation-delay: 0s; }
      .magic-particle:nth-child(2) { animation-delay: 2s; }
      .magic-particle:nth-child(3) { animation-delay: 4s; }
      .magic-particle:nth-child(4) { animation-delay: 6s; }

      .shield-bg { animation: shieldPulse 8s ease-in-out infinite; }
      @keyframes shieldPulse {
        0%, 100% { opacity: 1; }
        50% { opacity: 0.85; }
      }

      .decorative { animation: decorativeFade 6s ease-in-out infinite; }
      @keyframes decorativeFade {
        0%, 100% { opacity: 0.06; }
        50% { opacity: 0.12; }
      }

      .left-bracket {
        animation: leftBracketGrow 4s ease-in-out infinite;
        transform-origin: center center;
      }
      .right-bracket {
        animation: rightBracketGrow 4s ease-in-out infinite;
        transform-origin: center center;
      }
      @keyframes leftBracketGrow {
        0%, 100% { transform: scale(1); }
        25% { transform: scale(1.3); }
        75% { transform: scale(0.85); }
      }
      @keyframes rightBracketGrow {
        0%, 100% { transform: scale(1); }
        25% { transform: scale(0.85); }
        75% { transform: scale(1.3); }
      }

      .data-stream-base {
        stroke-width: 20px;
        stroke-linecap: round;
        stroke-linejoin: round;
        opacity: 0.65;
      }
      
      .data-stream-path {
        stroke-width: 18px;
        stroke-linecap: round;
        stroke-linejoin: round;
        stroke-dasharray: 50 2;
        animation: streamFlowOut 2s linear infinite;
      }
      
      @keyframes streamFlowOut {
        0% { stroke-dashoffset: 0; }
        100% { stroke-dashoffset: -52; }
      }

      .stream-left { 
        animation: streamFlowOut 2s linear infinite, streamGlowLeft 4s ease-in-out infinite; 
      }
      @keyframes streamGlowLeft {
        0%, 100% { 
          opacity: 0.6; 
        }
        25% { 
          opacity: 0.8; 
        }
        50%, 75% { 
          opacity: 0.6; 
        }
      }

      .stream-right { 
        animation: streamFlowOut 2s linear infinite, streamGlowRight 4s ease-in-out infinite; 
      }
      @keyframes streamGlowRight {
        0%, 25%, 50% { 
          opacity: 0.6; 
        }
        75% { 
          opacity: 0.8; 
        }
        100% { 
          opacity: 0.6; 
        }
      }

      .stream-center { 
        animation: streamFlowOut 2s linear infinite, streamGlowCenter 4s ease-in-out infinite; 
      }
      @keyframes streamGlowCenter {
        0%, 100% { 
          opacity: 0.65; 
        }
        25%, 75% { 
          opacity: 0.85; 
        }
        50% { 
          opacity: 0.65; 
        }
      }

      .hat-interior-glow {
        fill: url(#hat-interior-gradient);
        opacity: 0.3;
        animation: interiorPulse 5s ease-in-out infinite;
      }
      @keyframes interiorPulse {
        0%, 100% { opacity: 0.3; }
        50% { opacity: 0.5; }
      }
    </style>

    <linearGradient id="linear-gradient" x1="1260.48" y1="2824.55" x2="1260.48" y2="93.26" gradientUnits="userSpaceOnUse">
      <stop offset="0" stop-color="#0d1117" stop-opacity="1"/>
      <stop offset=".33" stop-color="#1a1a2e" stop-opacity="1"/>
      <stop offset=".67" stop-color="#16213e" stop-opacity="1"/>
      <stop offset="1" stop-color="#0d1117" stop-opacity="1"/>
    </linearGradient>
    <radialGradient id="radial-gradient" cx="1260.48" cy="1455.9" fx="1260.48" fy="1455.9" r="1365.65" gradientUnits="userSpaceOnUse">
      <stop offset="0" stop-color="#667eea" stop-opacity=".15"/>
      <stop offset=".5" stop-color="#8ec5fc" stop-opacity=".08"/>
      <stop offset="1" stop-color="#667eea" stop-opacity="0"/>
    </radialGradient>
    <radialGradient id="radial-gradient1" cx="1260" cy="1380" fx="1260" fy="1380" r="620" gradientUnits="userSpaceOnUse">
      <stop offset="0" stop-color="#667eea" stop-opacity=".2"/>
      <stop offset=".5" stop-color="#805ad5" stop-opacity=".1"/>
      <stop offset="1" stop-color="#667eea" stop-opacity="0"/>
    </radialGradient>
    <radialGradient id="radial-gradient2" cx="1260" cy="1780" fx="1260" fy="1780" r="590" gradientUnits="userSpaceOnUse">
      <stop offset="0" stop-color="#8ec5fc" stop-opacity=".15"/>
      <stop offset="1" stop-color="#667eea" stop-opacity="0"/>
    </radialGradient>
    <radialGradient id="radial-gradient3" cx="1260" cy="1775" fx="1260" fy="1775" r="570" gradientUnits="userSpaceOnUse">
      <stop offset="0" stop-color="#8ec5fc" stop-opacity=".2"/>
      <stop offset="1" stop-color="#667eea" stop-opacity="0"/>
    </radialGradient>
    <linearGradient id="linear-gradient2" x1="1110" y1="2000" x2="1110" y2="1770" gradientUnits="userSpaceOnUse">
      <stop offset="0" stop-color="#8ec5fc" stop-opacity="1"/>
      <stop offset="1" stop-color="#667eea" stop-opacity="0.8"/>
    </linearGradient>
    <linearGradient id="linear-gradient3" x1="1260" y1="2140" x2="1260" y2="1880" gradientUnits="userSpaceOnUse">
      <stop offset="0" stop-color="#805ad5" stop-opacity="1"/>
      <stop offset="1" stop-color="#8ec5fc" stop-opacity="0.8"/>
    </linearGradient>
    <linearGradient id="linear-gradient4" x1="1410" y1="2000" x2="1410" y2="1770" xlink:href="#linear-gradient2"/>
    <linearGradient id="linear-gradient5" x1="1390" y1="2180" x2="1390" y2="2100" xlink:href="#linear-gradient2"/>
    <linearGradient id="linear-gradient6" x1="1530" y1="2180" x2="1530" y2="2100" xlink:href="#linear-gradient2"/>
    <linearGradient id="linear-gradient7" x1="880" y1="2220" x2="880" y2="2180" xlink:href="#linear-gradient2"/>
    <linearGradient id="linear-gradient8" x1="1640" y1="2220" x2="1640" y2="2180" xlink:href="#linear-gradient2"/>
    <linearGradient id="linear-gradient9" x1="1260" y1="900" x2="1260" y2="800" gradientUnits="userSpaceOnUse">
      <stop offset="0" stop-color="#667eea" stop-opacity=".1"/>
      <stop offset="1" stop-color="#667eea" stop-opacity="0"/>
    </linearGradient>
    <linearGradient id="linear-gradient10" x1="1260" y1="1753" x2="1260" y2="730" gradientUnits="userSpaceOnUse">
      <stop offset="0" stop-color="#8ec5fc" stop-opacity=".3"/>
      <stop offset=".5" stop-color="#667eea" stop-opacity=".15"/>
      <stop offset="1" stop-color="#805ad5" stop-opacity="0"/>
    </linearGradient>
    <linearGradient id="linear-gradient11" x1="1100" y1="2280" x2="1100" y2="2100" xlink:href="#linear-gradient2"/>
    <linearGradient id="linear-gradient12" x1="990" y1="2260" x2="990" y2="2100" xlink:href="#linear-gradient2"/>
    <linearGradient id="linear-gradient14" x1="1320" y1="1110" x2="1320" y2="1753" gradientUnits="userSpaceOnUse">
      <stop offset="0" stop-color="#8ec5fc" stop-opacity="0"/>
      <stop offset=".5" stop-color="#667eea" stop-opacity=".05"/>
      <stop offset="1" stop-color="#8ec5fc" stop-opacity="0"/>
    </linearGradient>
    <linearGradient id="linear-gradient15" x1="1260.48" y1="1691.5" x2="1260.48" y2="1690" xlink:href="#linear-gradient14"/>
    <linearGradient id="linear-gradient16" x1="896" y1="928" x2="896" y2="880" gradientUnits="userSpaceOnUse">
      <stop offset="0" stop-color="#e0c3fc"/>
      <stop offset=".5" stop-color="#8ec5fc"/>
      <stop offset="1" stop-color="#667eea"/>
    </linearGradient>
    <linearGradient id="linear-gradient17" x1="1055" y1="820" x2="1055" y2="780" xlink:href="#linear-gradient16"/>
    <linearGradient id="linear-gradient18" x1="1237" y1="797" x2="1237" y2="743" xlink:href="#linear-gradient16"/>
    <linearGradient id="linear-gradient19" x1="1455" y1="820" x2="1455" y2="780" xlink:href="#linear-gradient16"/>
    <linearGradient id="linear-gradient20" x1="1636" y1="904" x2="1636" y2="856" xlink:href="#linear-gradient16"/>
    <linearGradient id="linear-gradient21" x1="765" y1="1210" x2="765" y2="1170" xlink:href="#linear-gradient16"/>
    <linearGradient id="linear-gradient22" x1="1765" y1="1210" x2="1765" y2="1170" xlink:href="#linear-gradient16"/>
    <linearGradient id="linear-gradient23" x1="688" y1="1436" x2="688" y2="1404" xlink:href="#linear-gradient16"/>
    <linearGradient id="linear-gradient24" x1="1848" y1="1436" x2="1848" y2="1404" xlink:href="#linear-gradient16"/>
    <radialGradient id="radial-gradient4" cx="970" cy="840" r="25" gradientUnits="userSpaceOnUse">
      <stop offset="0" stop-color="#8ec5fc" stop-opacity=".8"/>
      <stop offset=".5" stop-color="#805ad5" stop-opacity=".4"/>
      <stop offset="1" stop-color="#667eea" stop-opacity="0"/>
    </radialGradient>
    <radialGradient id="radial-gradient5" cx="1140" cy="785" r="20" xlink:href="#radial-gradient4"/>
    <radialGradient id="radial-gradient6" cx="1380" cy="785" r="20" xlink:href="#radial-gradient4"/>
    <radialGradient id="radial-gradient7" cx="1550" cy="840" r="25" xlink:href="#radial-gradient4"/>
    <radialGradient id="radial-gradient8" cx="820" cy="1300" r="22" xlink:href="#radial-gradient4"/>
    <radialGradient id="radial-gradient9" cx="1700" cy="1300" r="22" xlink:href="#radial-gradient4"/>
    
    <radialGradient id="hat-interior-gradient" cx="1260" cy="1400" fx="1260" fy="1400" r="250" gradientUnits="userSpaceOnUse">
      <stop offset="0" stop-color="#8ec5fc" stop-opacity=".6"/>
      <stop offset=".5" stop-color="#667eea" stop-opacity=".3"/>
      <stop offset="1" stop-color="#805ad5" stop-opacity="0"/>
    </radialGradient>
    
    <path id="textPath" d="M 650,2420 Q 1260,2500 1870,2420" fill="none"/>
  </defs>

  <path class="st43 shield-bg" d="M2443.1,776.1l-178.1-102.9c-252.8-183.2-693.3-408.3-1004.5-579.9-353.4,202.8-724.6,418.3-1007.6,581.6l-175,101.2v1365.6l1182.6,682.8,1182.6-682.8V776.1Z"/>
  <path class="st42 shield-bg" d="M2443.1,776.1l-178.1-102.9c-252.8-183.2-693.3-408.3-1004.5-579.9-353.4,202.8-724.6,418.3-1007.6,581.6l-175,101.2v1365.6l1182.6,682.8,1182.6-682.8V776.1Z"/>

  <g class="st19">
    <path class="st31" d="M400,800c-13.33,33.33-13.33,66.67,0,100"/>
    <path class="st31" d="M2120,800c13.33,33.33,13.33,66.67,0,100"/>
    <path class="st31" d="M350,1300c-13.33,53.33-13.33,106.67,0,160"/>
    <path class="st31" d="M2170,1300c13.33,53.33,13.33,106.67,0,160"/>
    <path class="st31" d="M500,1800c-13.33,53.33-13.33,106.67,0,160"/>
    <path class="st31" d="M2020,1800c13.33,53.33,13.33,106.67,0,160"/>
    <path class="st31" d="M600,1100c-13.33,33.33-13.33,66.67,0,100"/>
    <path class="st31" d="M1920,1100c13.33,33.33,13.33,66.67,0,100"/>
  </g>

  <ellipse class="st45" cx="1260" cy="1380" rx="620" ry="520"/>

  <g>
    <path class="st22 data-stream-base" d="M1260,1770v110c0,40-20,80-60,120s-90,73.33-150,100-120,53.33-180,80"/>
    <path class="st30 data-stream-base" d="M1050,2100c-40,26.67-83.33,53.33-130,80s-93.33,53.33-140,80"/>
    <path class="st29 data-stream-base" d="M1050,2100c20,33.33,40,66.67,60,100l40,80"/>
    <path class="st24 data-stream-base" d="M920,2180c-26.67,13.33-53.33,26.67-80,40"/>
    <path class="st23 data-stream-base" d="M1260,1880v260"/>
    <path class="st28 data-stream-base" d="M1260,1880c0,40,20,80,60,120s90,73.33,150,100,120,53.33,180,80"/>
    <path class="st27 data-stream-base" d="M1470,2100c-26.67,33.33-53.33,66.67-80,100-20,26.67-40,53.33-60,80"/>
    <path class="st26 data-stream-base" d="M1470,2100c40,26.67,83.33,53.33,130,80s93.33,53.33,140,80"/>
    <path class="st25 data-stream-base" d="M1600,2180c26.67,13.33,53.33,26.67,80,40"/>
  </g>

  <g>
    <path class="st22 data-stream-path stream-left" d="M1260,1770v110c0,40-20,80-60,120s-90,73.33-150,100-120,53.33-180,80"/>
    <path class="st30 data-stream-path stream-left" d="M1050,2100c-40,26.67-83.33,53.33-130,80s-93.33,53.33-140,80"/>
    <path class="st29 data-stream-path stream-left" d="M1050,2100c20,33.33,40,66.67,60,100l40,80"/>
    <path class="st24 data-stream-path stream-left" d="M920,2180c-26.67,13.33-53.33,26.67-80,40"/>
    <path class="st23 data-stream-path stream-center" d="M1260,1880v260"/>
    <path class="st28 data-stream-path stream-right" d="M1260,1880c0,40,20,80,60,120s90,73.33,150,100,120,53.33,180,80"/>
    <path class="st27 data-stream-path stream-right" d="M1470,2100c-26.67,33.33-53.33,66.67-80,100-20,26.67-40,53.33-60,80"/>
    <path class="st26 data-stream-path stream-right" d="M1470,2100c40,26.67,83.33,53.33,130,80s93.33,53.33,140,80"/>
    <path class="st25 data-stream-path stream-right" d="M1600,2180c26.67,13.33,53.33,26.67,80,40"/>
  </g>

  <g class="hat-main">
    <ellipse class="st14" cx="1260" cy="1780" rx="590" ry="130"/>
    <ellipse class="st13" cx="1260" cy="1775" rx="570" ry="115"/>
    <ellipse class="st6" cx="1260" cy="1770" rx="550" ry="100"/>
    <g>
      <path class="st2" d="M735,1742.5c50-125,115-302.5,195-532.5l150-405c50-100,100-170,150-210,20,20,40,20,60,0,50,40,100,110,150,210l120,375c60,220,100,407.5,120,562.5h-945Z"/>
      <ellipse class="st41" cx="1260" cy="1753" rx="562.5" ry="112.5"/>
      <ellipse class="st0" cx="1260" cy="1760.5" rx="532.5" ry="82.5"/>
      <path class="st41" d="M735,1753c70-182,145-398,225-648l150-375c50-100,100-160,150-180,50,20,100,80,150,180l75,300c50,200,114,441,192,723h-942Z"/>
      <path class="st11" d="M735,1753c70-182,145-398,225-648l150-375c50-100,100-160,150-180,50,20,100,80,150,180l75,300c50,200,114,441,192,723"/>
      <path class="st9" d="M840,1510l60-120"/>
      <path class="st9" d="M960,1180l60-120"/>
      <path class="st9" d="M1110,805l60-90"/>
      <path class="st9" d="M1530,1315c2-30-.5-60-7.5-90"/>
      <path class="st9" d="M1590,1480c-5-30-12.5-60-22.5-90"/>
      <path class="st9" d="M1035,1600l30-120"/>
      <path class="st9" d="M1447.5,1577.5c10-40,17.5-80,22.5-120"/>
      <path class="st1" d="M840,1510l45-105"/>
      <path class="st1" d="M960,1180l45-105"/>
      <path class="st5" d="M780,1630l60-240"/>
      <path class="st5" d="M990,1255l60-210"/>
      <path class="st5" d="M885,1405l60-150"/>
      <ellipse class="hat-interior-glow" cx="1260" cy="1350" rx="180" ry="280"/>
      <path class="st18" d="M1260,550c80-20,140,0,180,60,20,40,20,80,0,120-20,20-40,25-60,15"/>
      <path class="st17" d="M727.5,1693h1065c16.57,0,30,4.7,30,10.5h0c0,5.8-13.43,10.5-30,10.5H727.5c-16.57,0-30-4.7-30-10.5h0c0-5.8,13.43-10.5,30-10.5Z"/>
      <path class="st3" d="M727.5,1690h1065c16.57,0,30,.67,30,1.5h0c0,.83-13.43,1.5-30,1.5H727.5c-16.57,0-30-.67-30-1.5h0c0-.83,13.43-1.5,30-1.5Z"/>
    </g>
  </g>

  <g>
    <path class="st33 star" d="M890,880l6,18,18,6-18,6-6,18-6-18-18-6,18-6,6-18Z"/>
    <path class="st34 star" d="M1050,800l5,15,15,5-15,5-5,15-5-15-15-5,15-5,5-15Z"/>
    <path class="st32 star" d="M1230,770l7,20,20,7-20,7-7,20-7-20-20-7,20-7,7-20Z"/>
    <path class="st35 star" d="M1450,800l5,15,15,5-15,5-5,15-5-15-15-5,15-5,5-15Z"/>
    <path class="st40 star" d="M1630,880l6,18,18,6-18,6-6,18-6-18-18-6,18-6,6-18Z"/>
    <path class="st39 star" d="M760,1180l5,15,15,5-15,5-5,15-5-15-15-5,15-5,5-15Z"/>
    <path class="st37 star" d="M1760,1180l5,15,15,5-15,5-5,15-5-15-15-5,15-5,5-15Z"/>
    <path class="st36 star" d="M680,1420l4,12,12,4-12,4-4,12-4-12-12-4,12-4,4-12Z"/>
    <path class="st38 star" d="M1840,1420l4,12,12,4-12,4-4,12-4-12-12-4,12-4,4-12Z"/>
  </g>

  <g class="st19">
    <circle class="st50 sparkle-glow" cx="970" cy="840" r="25"/>
    <circle class="st49 sparkle-glow" cx="1140" cy="785" r="20"/>
    <circle class="st46 sparkle-glow" cx="1380" cy="785" r="20"/>
    <circle class="st51 sparkle-glow" cx="1550" cy="840" r="25"/>
    <circle class="st48 sparkle-glow" cx="820" cy="1300" r="22"/>
    <circle class="st47 sparkle-glow" cx="1700" cy="1300" r="22"/>
  </g>

  <g class="st8 left-bracket">
    <text class="st15" transform="translate(570 1678)"><tspan x="0" y="0">&lt;</tspan></text>
  </g>
  <g class="st8 right-bracket">
    <text class="st15" transform="translate(1866.21 1690)"><tspan x="0" y="0">&gt;</tspan></text>
  </g>

  <text class="text-glow">
    <textPath href="#textPath" startOffset="50%" text-anchor="middle">
      SORTING HAT
    </textPath>
  </text>
  <text class="text-fill">
    <textPath href="#textPath" startOffset="50%" text-anchor="middle">
      SORTING HAT
    </textPath>
  </text>

  <g>
    <circle class="magic-particle" cx="1225" cy="1845" r="3" fill="#8ec5fc" opacity="0.8"/>
    <circle class="magic-particle" cx="1280" cy="1850" r="2.5" fill="#667eea" opacity="0.8"/>
    <circle class="magic-particle" cx="1370" cy="1855" r="2" fill="#805ad5" opacity="0.8"/>
    <circle class="magic-particle" cx="1250" cy="1865" r="2" fill="#e0c3fc" opacity="0.8"/>
  </g>
</svg>